<?xml version="1.0" standalone="no"?>
<!DOCTYPE svg PUBLIC "-//W3C//DTD SVG 20010904//EN"
 "http://www.w3.org/TR/2001/REC-SVG-20010904/DTD/svg10.dtd">
<svg version="1.0" xmlns="http://www.w3.org/2000/svg"
 width="300.000000pt" height="300.000000pt" viewBox="0 0 300.000000 300.000000"
 preserveAspectRatio="xMidYMid meet">
<metadata>
Created by potrace 1.14, written by Peter Selinger 2001-2017
</metadata>
<g transform="translate(0.000000,300.000000) scale(0.100000,-0.100000)"
fill="#000000" stroke="none">
<path d="M1320 2992 c0 -4 -12 -7 -27 -6 -16 1 -34 -3 -40 -9 -9 -6 -13 -5
-13 4 0 11 -2 11 -8 2 -5 -7 -21 -15 -38 -17 -67 -9 -100 -19 -111 -34 -7 -9
-13 -11 -13 -4 0 12 -40 8 -49 -5 -5 -7 -17 -11 -46 -17 -5 -1 -20 -7 -31 -14
-12 -6 -24 -8 -28 -5 -3 3 -6 1 -6 -5 0 -7 -5 -12 -11 -12 -6 0 -33 -11 -59
-24 -27 -13 -51 -22 -54 -19 -3 4 -6 -2 -6 -12 0 -10 -3 -15 -7 -12 -3 4 -12
2 -20 -4 -7 -6 -13 -8 -13 -4 0 5 -9 -2 -19 -14 -11 -12 -21 -21 -23 -20 -5 5
-68 -35 -68 -43 0 -4 -5 -8 -12 -8 -6 0 -18 -7 -27 -15 -64 -59 -81 -74 -81
-70 0 3 -11 -5 -25 -17 -13 -11 -22 -26 -18 -31 3 -6 2 -8 -3 -5 -11 7 -35
-17 -26 -27 4 -4 2 -6 -3 -5 -21 5 -36 0 -30 -10 3 -6 -1 -13 -9 -16 -9 -3
-14 -10 -11 -14 3 -5 -4 -12 -16 -15 -11 -4 -18 -9 -15 -12 2 -3 -5 -16 -17
-29 -33 -35 -47 -53 -47 -59 0 -7 -19 -31 -42 -52 -9 -9 -15 -20 -12 -25 3 -4
0 -8 -6 -8 -6 0 -8 -4 -5 -10 3 -5 1 -10 -5 -10 -6 0 -9 -4 -6 -9 3 -5 -1 -11
-9 -15 -8 -3 -15 -12 -15 -19 0 -8 -10 -27 -22 -43 -13 -16 -16 -25 -8 -20 8
4 7 1 -2 -7 -10 -8 -16 -16 -13 -19 3 -2 -9 -30 -25 -62 -17 -31 -24 -54 -17
-50 6 4 4 -2 -6 -13 -10 -11 -17 -24 -16 -29 1 -5 0 -16 -4 -24 -18 -49 -26
-84 -20 -93 4 -6 1 -7 -6 -2 -9 5 -12 2 -9 -11 3 -11 -1 -31 -9 -46 -10 -21
-10 -28 0 -31 9 -4 9 -6 0 -6 -7 -1 -10 -8 -6 -18 4 -9 2 -14 -4 -10 -6 4 -9
-11 -8 -38 0 -25 -2 -45 -6 -45 -3 0 -6 -72 -7 -160 0 -119 3 -158 11 -154 8
5 8 2 0 -7 -14 -15 -18 -33 -5 -25 5 3 8 -13 7 -34 -1 -22 2 -40 5 -40 4 0 8
-12 8 -28 2 -30 3 -37 21 -102 6 -25 16 -53 22 -64 7 -13 7 -16 0 -12 -7 4 -8
1 -5 -8 3 -9 11 -16 16 -16 6 0 8 -7 4 -15 -3 -8 -1 -15 4 -15 5 0 6 -7 3 -17
-5 -12 -3 -14 7 -8 10 6 12 3 8 -13 -4 -12 -2 -22 4 -22 5 0 6 -4 3 -10 -3 -5
-2 -10 3 -10 5 0 15 -18 22 -40 7 -22 19 -45 27 -51 7 -6 10 -15 7 -20 -3 -5
0 -9 6 -9 6 0 8 -5 5 -10 -3 -6 1 -13 10 -16 9 -4 14 -13 11 -20 -3 -8 -1 -14
5 -14 6 0 7 -4 4 -10 -3 -5 -2 -10 4 -10 5 0 20 -18 32 -40 13 -22 26 -40 31
-40 4 0 8 -10 8 -22 0 -12 3 -19 6 -15 8 7 34 -17 34 -32 0 -5 8 -15 18 -20 9
-6 13 -11 9 -11 -5 0 6 -15 24 -33 18 -17 37 -31 42 -29 4 1 6 -1 4 -5 -3 -5
8 -21 24 -36 16 -16 29 -26 29 -23 0 4 16 -12 36 -34 20 -22 43 -40 52 -40 8
0 12 -3 9 -7 -6 -6 49 -49 66 -51 4 -1 17 -11 29 -22 12 -11 27 -20 34 -20 6
0 17 -7 24 -15 7 -8 16 -12 21 -10 4 3 11 -1 16 -9 8 -14 102 -61 116 -58 4 1
7 -2 7 -8 0 -6 3 -9 8 -9 4 1 23 -4 42 -12 19 -7 38 -12 43 -11 4 1 7 -3 7 -9
0 -5 4 -7 10 -4 5 3 21 -2 35 -11 14 -9 25 -14 25 -11 0 4 18 0 40 -8 22 -8
40 -12 40 -8 0 3 7 0 15 -7 8 -7 15 -9 15 -6 0 4 9 2 20 -4 15 -8 20 -8 20 1
0 8 4 8 15 -1 8 -7 21 -10 29 -7 8 3 17 -1 21 -10 4 -12 9 -13 17 -5 9 9 15 8
27 -1 12 -10 13 -9 7 1 -7 11 -4 12 11 4 26 -14 314 -13 332 2 11 8 13 8 7 -1
-4 -7 -2 -13 3 -13 6 0 11 4 11 9 0 5 15 8 33 7 17 -1 38 2 45 7 6 5 12 6 12
2 0 -4 7 -2 15 5 8 7 15 9 15 5 0 -4 8 -1 17 6 14 12 15 12 9 1 -7 -11 -4 -12
13 -3 12 7 26 9 31 6 6 -3 10 -1 10 5 0 7 6 10 14 7 8 -3 17 -3 21 1 4 4 10 7
13 7 4 1 18 7 31 14 17 9 21 10 16 1 -4 -7 4 -5 17 4 14 9 28 13 31 9 4 -3 7
-1 7 6 0 8 7 11 15 7 8 -3 15 -2 15 3 0 5 10 12 23 16 12 4 24 8 27 9 26 9 87
42 92 50 5 7 8 7 8 1 0 -5 4 -4 9 4 5 8 18 16 28 17 9 2 19 8 21 14 2 5 8 8
13 4 5 -3 9 0 9 7 0 7 3 9 7 6 3 -4 16 4 28 18 13 13 26 21 29 18 3 -4 6 -2 6
4 0 6 9 13 21 16 13 4 18 10 13 18 -4 7 -3 10 3 6 6 -4 21 3 35 16 13 12 26
22 29 22 10 0 38 33 33 38 -3 3 4 8 15 12 12 3 26 15 32 26 5 11 14 17 20 14
8 -5 13 7 11 26 -1 3 10 12 23 19 14 7 25 16 25 20 0 4 15 23 34 43 18 20 31
38 28 41 -3 4 0 6 6 6 7 0 12 6 12 13 1 6 14 27 30 46 16 19 27 38 25 42 -3 4
2 9 10 13 8 3 15 10 15 16 0 6 11 28 25 50 14 22 23 40 19 40 -3 0 2 7 10 16
9 8 14 20 10 25 -3 5 2 12 10 15 9 3 14 10 11 14 -2 4 4 25 14 46 11 21 17 42
14 46 -2 5 1 8 7 8 7 0 10 7 6 15 -3 8 0 15 6 15 6 0 9 3 6 6 -4 3 0 21 8 40
8 19 12 39 9 44 -3 5 -1 11 5 15 6 4 8 11 5 16 -4 5 -2 9 3 9 5 0 8 14 7 30
-1 17 1 30 5 30 6 0 8 14 13 88 1 12 7 22 12 22 6 0 3 5 -5 10 -8 5 -10 10 -4
10 9 0 12 46 12 160 0 118 -3 158 -11 153 -7 -4 -7 0 1 9 9 11 10 18 2 23 -5
3 -10 11 -10 16 0 6 5 7 11 3 8 -5 8 -1 0 13 -6 11 -7 23 -4 27 3 3 1 6 -5 6
-7 0 -12 10 -12 23 0 52 -5 85 -12 80 -5 -2 -8 10 -8 26 0 17 -5 31 -11 31 -5
0 -8 4 -5 9 4 5 1 22 -6 38 -6 15 -10 34 -9 41 1 6 -3 12 -9 12 -6 0 -9 4 -6
9 3 5 -2 26 -13 48 -10 21 -29 61 -42 88 -13 28 -27 52 -32 53 -4 2 -5 8 -1
13 3 5 0 9 -7 9 -7 0 -10 3 -6 6 3 3 2 11 -4 18 -18 21 -58 86 -54 86 5 0 -19
32 -47 61 -9 9 -14 20 -11 22 2 3 -5 8 -16 12 -12 3 -19 10 -16 15 7 11 -223
240 -241 240 -3 0 -19 10 -34 23 -44 34 -79 58 -83 55 -1 -2 -15 7 -31 20 -16
12 -34 22 -42 22 -7 0 -14 3 -16 8 -3 7 -67 39 -125 64 -18 7 -33 15 -33 18 0
3 -12 6 -26 7 -15 0 -29 5 -33 11 -3 5 -14 8 -23 6 -10 -1 -18 1 -18 5 0 6
-20 11 -62 14 -10 1 -18 8 -18 17 0 12 -2 12 -9 1 -5 -8 -11 -9 -15 -3 -3 6
-17 9 -31 7 -14 -1 -25 1 -25 5 0 5 -13 7 -30 6 -16 -1 -30 1 -30 5 0 4 -8 7
-17 7 -10 -1 -29 2 -43 6 -19 6 -21 5 -10 -3 9 -7 10 -11 3 -11 -6 0 -14 4
-17 9 -9 14 -288 11 -305 -3 -12 -8 -13 -8 -7 2 4 6 2 12 -3 12 -6 0 -11 -4
-11 -8z"/>
</g>
</svg>
